<svg id="Layer_1" data-name="Layer 1" xmlns="http://www.w3.org/2000/svg" viewBox="0 0 222.33 118.19"><defs><style>.cls-1{fill:#ffc115;}.cls-2,.cls-6,.cls-7{fill:none;}.cls-2{stroke:#000;stroke-width:5px;}.cls-2,.cls-7{stroke-linecap:round;}.cls-3{fill:#fff;}.cls-4{font-size:18px;font-family:MyriadPro-It, Myriad Pro;font-style:italic;letter-spacing:0.06em;}.cls-5{letter-spacing:0.05em;}.cls-6{stroke:#fff;stroke-width:0.75px;}.cls-6,.cls-7{stroke-miterlimit:10;}.cls-7{stroke:#d39a0b;}</style></defs><title>logo</title><path class="cls-1" d="M91.87,103.9,32.34,111.7S12,88.51,8.52,78.94C5.32,70.17,5,32.38,5,32.38L40.59,3s-1.94,58.42,1.13,66.44C51.27,94.43,91.87,103.9,91.87,103.9Z"/><path d="M67.27,71.62l5-.59q5.6-.65,6.06,3.3a5,5,0,0,1-1.49,4.45,9,9,0,0,1-5.36,2.16l-7.07.82a10.51,10.51,0,0,1-6.34-.88,5.11,5.11,0,0,1-2.75-4.1,10.4,10.4,0,0,1,.5-3.84L61.07,54l.34-1.3q1.46-5.26,6-5.79a4.64,4.64,0,0,1,3.37.87,3.93,3.93,0,0,1,1.7,2.82,13.19,13.19,0,0,1-.69,4.5Zm1.39-39.19a6.24,6.24,0,0,1,5.61,10.05,6.24,6.24,0,0,1-9.78-7.74A6,6,0,0,1,68.65,32.43Z"/><path d="M89.24,97.39m-.36,1M77.49,99.76,89.9,55.42,85.1,56q-5.65.66-6.11-3.3a5,5,0,0,1,1.49-4.45,9.09,9.09,0,0,1,5.4-2.16l10.63-1.24q5.38-.63,5.9,3.86a10.8,10.8,0,0,1-.47,4.11L88.88,98.44Zm21.8-70.9a6.24,6.24,0,0,1,5.61,10.05,6.24,6.24,0,0,1-9.78-7.74A6,6,0,0,1,99.29,28.86Z"/><path d="M136.68,63.53l4.89-.57q5.6-.65,6.06,3.26a5.09,5.09,0,0,1-1.51,4.48,8.93,8.93,0,0,1-5.34,2.18l-5.69.66q-3.83.45-5.55-2.37-3,3.37-6.1,3.73l-5.07.59a10,10,0,0,1-8.3-2.57A13.61,13.61,0,0,1,106,64.13a22.72,22.72,0,0,1,4.11-16q5.11-7.42,12.53-8.29,5.69-.66,8.78,3a6.78,6.78,0,0,1,5.44-4,4.59,4.59,0,0,1,3.41.86A4.09,4.09,0,0,1,142,42.64a8.15,8.15,0,0,1-.36,3.06L141.24,47Zm-16.11,2.1,1.11-.13q3.64-.42,4.5-3.54l2.22-8.05a7,7,0,0,0,.33-2.61,2.6,2.6,0,0,0-1.42-2,4.58,4.58,0,0,0-2.93-.56q-3.25.38-5.87,4.52a12.39,12.39,0,0,0-2.16,8.18Q116.87,66.07,120.56,65.64Z"/><path d="M165.45,60.18l11.21-1.3q5.6-.65,6.06,3.3a5,5,0,0,1-1.49,4.45,9,9,0,0,1-5.36,2.16l-20.72,2.41a6.59,6.59,0,0,1-4.54-.87,4.68,4.68,0,0,1-2.06-3.55q-.26-2.27,2.38-5.5l12.91-15.7-4.91.75-1.11.13Q153,47,152.5,43a5.46,5.46,0,0,1,1.42-4.42,6.8,6.8,0,0,1,4.47-2.26l1.11-.13,13.83-1.61q6.18-.72,6.79,4.53.32,2.71-2.16,5.8Z"/><path d="M196.75,56.54l5-.59q5.6-.65,6.06,3.3a5,5,0,0,1-1.49,4.45A9,9,0,0,1,201,65.87l-7.07.82a10.51,10.51,0,0,1-6.34-.88,5.11,5.11,0,0,1-2.75-4.1,10.39,10.39,0,0,1,.5-3.84L190.56,39l.34-1.3q1.46-5.26,6-5.79a4.64,4.64,0,0,1,3.37.87,3.93,3.93,0,0,1,1.7,2.82,13.17,13.17,0,0,1-.69,4.5Zm1.38-39.19a6.19,6.19,0,0,1,6.9,5.46A6.22,6.22,0,1,1,194,19.66,6,6,0,0,1,198.13,17.35Z"/><line x1="21.58" y1="61.65" x2="67.4" y2="51.82"/><path d="M21.57,66.21a4.56,4.56,0,0,1-1-9l45.83-9.82a4.56,4.56,0,0,1,1.91,8.91L22.53,66.1A4.57,4.57,0,0,1,21.57,66.21Z"/><path d="M103.19,105.21c-10,.14-20-.55-29.6-3.32-22-6.35-36.38-25.09-39.77-47.31A106.62,106.62,0,0,1,33.06,31c.52-7.29,1.21-15,3.77-21.9,1.8-4.84,6.32-11,11.25-5.29,3.54,4.11,2.6,10.1.94,14.83-2.47,7-5.56,13.49-6.55,21a60.5,60.5,0,0,0,1.71,23.52c2.55,9.56,8.93,20.55,17.62,25.71,11.71,7,26.2,9.34,39.65,9.5,39.9.46,78.57-9.4,117.18-18.22,3.45-.79,4.34,2.92-5.71,5.68-34.09,9.34-68.77,17.91-104.24,19.33Q105.94,105.17,103.19,105.21Z"/><path class="cls-2" d="M32.06,109.53C11.52,93.81-.72,62.2,5.65,34.55"/><circle cx="115.48" cy="101.98" r="14.81"/><circle class="cls-3" cx="115.48" cy="101.98" r="10.47"/><circle cx="162.49" cy="96.7" r="14.81"/><circle class="cls-3" cx="162.49" cy="96.7" r="10.47"/><text class="cls-4" transform="translate(138.24 34.82) rotate(-6.3)">O<tspan class="cls-5" x="13.03" y="0">nline</tspan></text><ellipse class="cls-6" cx="13.93" cy="30.04" rx="1.51" ry="2.66"/><ellipse class="cls-6" cx="26.72" cy="21.75" rx="1.51" ry="2.66"/><path class="cls-7" d="M26.72,21.75c0-4.35.07-22-6.41-17.57C15.16,7.74,13.93,25.7,13.93,30"/></svg>